<?xml version="1.0" encoding="UTF-8" standalone="no"?>
<!-- Created with Inkscape (http://www.inkscape.org/) -->

<svg
   xmlns:dc="http://purl.org/dc/elements/1.1/"
   xmlns:cc="http://creativecommons.org/ns#"
   xmlns:rdf="http://www.w3.org/1999/02/22-rdf-syntax-ns#"
   xmlns:svg="http://www.w3.org/2000/svg"
   xmlns="http://www.w3.org/2000/svg"
   xmlns:sodipodi="http://sodipodi.sourceforge.net/DTD/sodipodi-0.dtd"
   xmlns:inkscape="http://www.inkscape.org/namespaces/inkscape"
   width="800"
   height="600"
   id="svg3756"
   version="1.1"
   inkscape:version="0.48.4 r9939"
   sodipodi:docname="ground.svg"
   inkscape:export-filename="C:\Programmation\javascript\cardman\gfx\ground.png"
   inkscape:export-xdpi="90"
   inkscape:export-ydpi="90">
  <defs
     id="defs3758" />
  <sodipodi:namedview
     id="base"
     pagecolor="#ffffff"
     bordercolor="#666666"
     borderopacity="1.0"
     inkscape:pageopacity="0.0"
     inkscape:pageshadow="2"
     inkscape:zoom="0.5"
     inkscape:cx="854.49943"
     inkscape:cy="313.69339"
     inkscape:document-units="px"
     inkscape:current-layer="layer1"
     showgrid="false"
     inkscape:window-width="1600"
     inkscape:window-height="837"
     inkscape:window-x="-8"
     inkscape:window-y="-8"
     inkscape:window-maximized="1" />
  <metadata
     id="metadata3761">
    <rdf:RDF>
      <cc:Work
         rdf:about="">
        <dc:format>image/svg+xml</dc:format>
        <dc:type
           rdf:resource="http://purl.org/dc/dcmitype/StillImage" />
        <dc:title></dc:title>
      </cc:Work>
    </rdf:RDF>
  </metadata>
  <g
     inkscape:label="Calque 1"
     inkscape:groupmode="layer"
     id="layer1"
     transform="translate(0,-452.36218)">
    <rect
       style="opacity:0.98999999000000005;fill:#274914;fill-opacity:1;stroke:none"
       id="rect4487"
       width="800"
       height="600"
       x="0"
       y="452.36218" />
    <path
       style="opacity:0.98999999000000005;fill:#a8a8a8;fill-opacity:1;stroke:none;stroke-width:6;stroke-linecap:round;stroke-linejoin:miter;stroke-miterlimit:4;stroke-opacity:1;stroke-dasharray:none;stroke-dashoffset:20"
       id="path3683"
       d="m 197.27317,421.39901 c 12.28283,-1.35477 24.66327,-0.94975 36.99244,-1.41432 4.55324,-0.17157 9.10204,-0.44589 13.65305,-0.66883 5.35471,-0.21296 10.70867,-0.44552 16.06412,-0.63888 14.83436,-0.53562 21.35665,-0.783 36.12986,-0.81692 13.53477,-0.0311 27.06958,0.37481 40.60398,0.46454 24.52113,-0.92601 48.96933,-2.95552 73.49068,-3.93465 11.92458,-0.44863 23.84629,-0.75471 35.77874,-0.61593 7.84779,-0.2033 15.69303,0.0762 23.53901,0.19635 9.48226,0.24821 18.93052,-0.57976 28.41906,-0.6608 14.41978,-0.16712 28.83182,-0.19882 43.24465,0.3043 7.48019,0.30599 14.967,0.22166 22.45021,0.385 7.03723,-0.16171 14.07341,-0.0897 21.11142,-0.0288 5.88204,0.41801 11.74019,1.10148 17.62025,1.55699 0,0 -6.15225,4.37157 -6.15225,4.37157 l 0,0 c -5.80168,-0.78933 -11.61006,-1.46168 -17.47504,-1.56419 -7.01159,0.0592 -14.0215,0.13543 -21.03219,-0.0287 -7.83669,0.16147 -15.6766,0.0874 -23.51061,0.38543 -14.69113,0.46796 -29.3805,0.49531 -44.07775,0.30077 -8.86999,-0.0809 -17.68161,-0.92404 -26.54502,-0.70243 -8.04612,0.0863 -16.09034,0.31809 -24.13784,0.25387 -12.66874,0.46355 -25.35345,0.89336 -37.96261,2.28105 -24.87154,2.36034 -49.77155,4.52993 -74.77418,4.78743 -14.33032,0.31164 -28.64796,0.98022 -42.97835,1.27102 -15.11571,0.30674 -20.09627,0.22029 -35.11249,0.0815 -4.98548,-0.0461 -9.97073,-0.11457 -14.9561,-0.17186 -13.14105,-0.35293 -10.0349,-0.28104 -21.87677,-0.56064 -5.06942,-0.1197 -10.14393,-0.10209 -15.20828,-0.3586 -3.71602,-0.18822 -5.09387,-0.40831 -8.31984,-0.82558 0,0 5.02185,-3.64859 5.02185,-3.64859 z"
       inkscape:connector-curvature="0"
       transform="translate(0,452.36218)" />
    <path
       style="opacity:0.98999999000000005;fill:#a8a8a8;fill-opacity:1;stroke:none;stroke-width:6;stroke-linecap:round;stroke-linejoin:miter;stroke-miterlimit:4;stroke-opacity:1;stroke-dasharray:none;stroke-dashoffset:20"
       id="path3689"
       d="m 609.83022,293.57967 c -11.66909,1.04816 -23.38864,0.8643 -35.08127,0.44494 -13.68332,-0.44755 -27.37063,-0.79321 -41.06064,-0.92449 -14.07711,0.26985 -28.15179,0.0281 -42.22601,-0.23863 -17.10086,-0.45141 -34.19367,0.80144 -51.27313,1.50075 -31.71551,1.18818 -63.4432,-0.008 -95.09863,-1.97386 -8.11664,-0.52735 -16.2255,-1.19952 -24.35476,-1.4983 -0.96626,0.0266 -1.93508,0.004 -2.89878,0.0797 -14.27215,1.11442 -7.99728,1.30953 -26.18979,1.42673 -18.29437,0.11787 -36.49282,-1.08214 -54.72341,-2.4119 -23.51992,-2.03577 -47.12732,-3.01834 -70.73168,-2.61944 0,0 8.85666,-6.47329 8.85666,-6.47329 l 0,0 c 24.63079,-0.97427 49.24679,-0.38039 73.87523,0.46867 18.01277,0.57317 35.97363,1.25453 53.92398,2.95565 4.5321,0.4295 9.0471,1.02353 13.57065,1.53529 2.40589,0.30199 4.80503,0.66379 7.21768,0.90595 0.88682,0.089 1.78161,0.0579 2.67242,0.0868 9.26193,-0.24583 18.51762,-0.67891 27.77815,-0.97394 32.43269,-0.9706 64.90888,-1.44996 97.32535,0.33778 15.70967,0.72255 31.42867,2.00264 47.16413,1.48484 14.20533,-0.2529 28.41451,-0.50929 42.61934,-0.0356 13.70703,0.14665 27.41564,0.27986 41.11168,0.91563 10.89711,0.36328 21.82897,0.30849 32.69314,1.25029 0,0 -5.17031,3.75645 -5.17031,3.75645 z"
       inkscape:connector-curvature="0"
       transform="translate(0,452.36218)" />
    <path
       style="opacity:0.98999999000000005;fill:#a8a8a8;fill-opacity:1;stroke:none;stroke-width:6;stroke-linecap:round;stroke-linejoin:miter;stroke-miterlimit:4;stroke-opacity:1;stroke-dasharray:none;stroke-dashoffset:20"
       id="path3693"
       d="m 172.31908,307.64174 c 47.83242,-3.22916 95.76513,-4.61448 143.68979,-5.56726 11.5305,-0.0634 23.06086,-0.16086 34.59149,-0.19031 27.49586,-0.0702 32.62126,-0.0696 58.80006,0.44421 17.96064,0.35253 35.90575,0.9441 53.86893,1.15315 13.30086,0.35545 26.61865,0.18937 39.90507,1.02134 8.37843,0.52465 16.69987,1.6307 25.02759,2.64509 5.39825,0.60456 10.81598,1.09118 16.19581,1.85379 2.42008,0.34305 6.14677,1.06995 8.59144,1.29264 1.87718,0.171 3.76431,0.20515 5.64647,0.30773 17.83382,-0.1779 35.66413,0.2987 53.48786,0.83356 7.96842,0.29895 15.90766,0.59592 23.87521,0.24954 0,0 -6.14357,4.52493 -6.14357,4.52493 l 0,0 c -8.52433,0.72735 -17.0788,0.82561 -25.63007,0.95492 -17.53199,0.23703 -35.15859,0.53693 -52.59715,-1.56835 -10.34183,-1.3581 -20.70329,-2.5982 -31.13979,-2.93882 -22.88594,-0.99638 -45.8028,-1.29926 -68.70668,-0.8076 -19.72205,0.70146 -39.41454,1.84591 -59.13116,2.67819 -24.93628,1.05262 -36.20361,1.41445 -61.7864,1.71009 -11.51239,0.13304 -23.02609,0.10377 -34.53913,0.15565 -43.57158,-0.35522 -87.27509,-0.45815 -130.73486,-3.86353 0,0 6.72909,-4.88896 6.72909,-4.88896 z"
       inkscape:connector-curvature="0"
       transform="translate(0,452.36218)" />
    <path
       style="opacity:0.98999999000000005;fill:#a8a8a8;fill-opacity:1;stroke:none;stroke-width:6;stroke-linecap:round;stroke-linejoin:miter;stroke-miterlimit:4;stroke-opacity:1;stroke-dasharray:none;stroke-dashoffset:20"
       id="path3695"
       d="m 277.05654,547.96101 c -1.42957,-7.62943 -2.16202,-15.40084 -3.14674,-23.10764 -1.64247,-12.95649 -1.63278,-26.03356 -2.61535,-39.03738 -0.64936,-10.89881 -0.9262,-21.84714 -1.99871,-32.71822 -0.56947,-5.77215 -1.44161,-11.01691 -2.30859,-16.76448 -3.19354,-19.00883 -4.62175,-38.21288 -5.27944,-57.4559 -0.37284,-15.34352 -0.2899,-30.68158 1.43479,-45.94218 1.117,-14.19856 3.04769,-28.29477 5.01168,-42.3943 1.55177,-9.63926 2.45275,-19.32405 2.57883,-29.08051 0.22549,-9.31333 1.23967,-18.58051 2.029,-27.85685 0.45,-8.13375 1.12072,-16.25485 0.87689,-24.4039 -0.34159,-11.56788 0.0803,-23.13344 0.64334,-34.68657 1.01076,-11.52006 1.89311,-23.03933 2.46229,-34.59063 0.13599,-11.24777 0.60492,-22.46291 1.83565,-33.64431 0.48753,-7.810775 0.54633,-15.636472 0.90156,-23.453786 0.0337,-4.467573 0.27309,-8.929894 0.31582,-13.396947 0,0 6.11258,-3.114607 6.11258,-3.114607 l 0,0 c 0.0434,4.378439 0.27737,8.75374 0.22148,13.13365 0.16934,7.782439 -0.0444,15.556012 -0.55563,23.32445 -0.20236,11.03129 -0.22874,22.06945 -0.75811,33.09032 -0.62585,11.58305 -2.07522,23.08704 -2.65534,34.66542 -0.10487,11.71503 -0.86579,23.38478 -1.45054,35.0764 -0.36421,8.11868 -0.051,16.25511 -0.68204,24.36497 -0.5901,9.29871 -1.7498,18.54702 -2.1301,27.85963 -0.27617,9.52778 -0.49624,19.0667 -1.35439,28.56427 -1.45488,14.19106 -3.78746,28.26548 -5.19984,42.46007 -1.12021,15.01056 -1.17371,30.09163 -0.0954,45.11027 1.03539,19.20942 2.31195,38.42335 5.04873,57.47902 1.67041,16.57011 3.79802,33.13292 3.86912,49.81328 -0.0313,13.21743 0.24636,26.44111 1.35422,39.61851 0.67569,8.03785 1.34166,16.0683 1.11136,24.14583 0,0 -5.57717,2.94212 -5.57717,2.94212 z"
       inkscape:connector-curvature="0"
       transform="translate(0,452.36218)" />
    <path
       style="opacity:0.98999999000000005;fill:#a8a8a8;fill-opacity:1;stroke:none;stroke-width:6;stroke-linecap:round;stroke-linejoin:miter;stroke-miterlimit:4;stroke-opacity:1;stroke-dasharray:none;stroke-dashoffset:20"
       id="path3697"
       d="m 363.43073,53.867848 c 0.85924,6.71138 0.43605,13.491973 0.51008,20.235473 0.28819,12.129978 -0.44302,24.237113 -0.89909,36.350719 0.3124,10.21025 1.32415,20.40432 2.29047,30.57385 1.00092,9.74637 2.93181,19.35337 4.30685,29.04362 0.76359,6.87288 1.16519,13.78254 1.54543,20.68575 0.41926,9.35497 0.11752,18.71641 0.19784,28.07549 0.0652,9.3923 0.0536,18.79357 -0.15093,28.18516 -0.23094,8.01178 -1.2638,15.98982 -2.53677,23.89681 -1.12545,8.60927 -2.85324,17.12583 -4.6744,25.61044 -1.39861,6.46025 -2.43397,12.98662 -2.99338,19.57111 -0.27699,4.92946 -0.3229,9.8519 -0.71509,14.77836 -1.1555,7.13637 -2.18321,14.28995 -3.01095,21.47163 -0.47514,6.09272 -0.74493,12.20406 -0.96394,18.3118 -0.31058,6.98177 -0.73733,13.95818 -0.92307,20.94476 -0.27585,6.26451 0.0609,12.52505 0.18866,18.78796 -0.19456,7.48448 -0.0675,14.95696 0.14411,22.43908 0.11999,6.11594 0.89175,12.16977 1.59318,18.23636 0.75833,5.96901 1.67079,11.88738 1.98605,17.90525 0.54385,6.94947 0.21098,13.9232 0.51305,20.8767 0.35494,6.4905 0.87768,12.90254 2.05119,19.29951 1.24397,7.67097 1.68919,15.44756 1.79477,23.2097 -0.01,3.52123 0.10039,7.03913 0.079,10.56054 0,0 -6.25334,3.19189 -6.25334,3.19189 l 0,0 c -0.0715,-3.46568 -0.0118,-6.94062 -0.33862,-10.39516 -0.62829,-7.66083 -1.37499,-15.30525 -2.15535,-22.95197 -0.51838,-6.51705 -1.46373,-12.98808 -1.73706,-19.52479 -0.49497,-6.9268 -0.31128,-13.87484 -0.639,-20.80993 -0.40235,-6.04625 -0.65223,-12.10328 -1.48774,-18.11047 -0.82367,-5.9753 -2.19171,-11.88335 -2.28493,-17.94425 -0.45196,-7.4737 0.12382,-14.95894 -0.21047,-22.44345 0.12282,-6.34719 0.42764,-12.69032 0.28335,-19.04011 0.008,-6.92743 -0.0513,-13.8626 0.50014,-20.77471 0.58259,-6.15882 1.24073,-12.29435 1.28167,-18.48896 0.42747,-7.21 1.35661,-14.36186 2.87241,-21.42892 0.78386,-4.962 1.41626,-9.93438 1.20068,-14.97011 0.17825,-6.43162 0.71912,-12.85454 1.94969,-19.17861 1.68723,-8.6251 3.55748,-17.21352 5.24686,-25.83819 0.98556,-7.82737 1.64039,-15.72563 2.17124,-23.59123 -0.20147,-9.34778 -0.19625,-18.70573 -0.1083,-28.05394 0.10366,-9.40461 -0.13361,-18.80944 0.10425,-28.21324 0.1377,-6.9146 0.048,-13.77688 -1.56181,-20.55191 -1.68245,-9.59873 -4.00479,-19.10723 -4.82537,-28.83392 -0.87196,-10.22451 -1.84589,-20.45944 -2.21038,-30.7133 -0.13837,-12.14327 -0.37592,-24.304653 0.94103,-36.403775 0.72245,-7.040399 0.73223,-14.076659 1.31543,-21.121283 0,0 5.61254,-2.859734 5.61254,-2.859734 z"
       inkscape:connector-curvature="0"
       transform="translate(0,452.36218)" />
    <path
       style="opacity:0.98999999000000005;fill:#a8a8a8;fill-opacity:1;stroke:none;stroke-width:6;stroke-linecap:round;stroke-linejoin:miter;stroke-miterlimit:4;stroke-opacity:1;stroke-dasharray:none;stroke-dashoffset:20"
       id="path3699"
       d="m 436.9324,532.06679 c -0.43478,-7.3793 0.13974,-14.83972 0.77318,-22.20228 0.36146,-6.8829 1.79686,-13.63959 2.60679,-20.47284 0.47286,-5.2 0.64835,-10.42815 0.59452,-15.64831 -0.20398,-7.46987 -0.72858,-14.92543 -1.13317,-22.38645 -0.68533,-7.56021 -0.37085,-15.14896 -0.37472,-22.72435 -0.21236,-6.70577 -0.1396,-13.4133 -0.56808,-20.11069 -0.46317,-5.83007 -0.82267,-11.64532 -0.79652,-17.49581 -0.57693,-7.34643 0.0177,-14.7096 -0.25839,-22.05724 -0.13606,-7.97255 -0.01,-15.94465 0.0126,-23.91815 -0.14117,-7.56793 -0.008,-15.13193 0.14341,-22.69805 -0.0413,-7.85996 -0.39892,-15.68979 -0.19238,-23.55476 0.0557,-5.83882 0.49227,-11.67699 0.35478,-17.51573 0.11355,-6.67612 -0.28033,-13.33254 -0.5064,-19.99975 0.074,-10.08164 1.16294,-20.10647 1.27565,-30.18773 -0.0183,-7.79866 0.53394,-15.5799 0.43421,-23.37744 -0.0106,-7.24535 -0.13393,-14.49132 0.085,-21.73421 0.42634,-10.41399 0.59855,-20.82607 1.40156,-31.22431 1.33626,-12.41053 1.68135,-24.90172 2.61946,-37.34436 0.71322,-10.04775 1.15902,-20.141279 1.2661,-30.220022 0.15064,-5.402526 0.0647,-2.784231 0.25329,-7.855036 0,0 6.78943,-3.456489 6.78943,-3.456489 l 0,0 c 0.15534,4.916068 0.0928,2.369386 0.17969,7.640237 -0.0851,9.962613 0.003,19.92109 -0.4902,29.8745 -0.50891,12.41533 -1.62819,24.7994 -2.29244,37.20755 -0.98249,10.63792 -2.33087,21.23598 -2.85048,31.91275 -0.42724,7.25234 -0.10326,14.51437 -0.24067,21.77584 -0.11265,7.71065 0.38324,15.41397 0.0972,23.12526 -0.31334,10.00201 -0.15249,20.02067 -0.89624,30.00539 -0.64314,6.87819 -0.97717,13.74682 -0.84473,20.65775 -0.1315,5.71864 0.28997,11.43563 0.35483,17.15416 0.21401,7.92971 -0.15992,15.82565 -0.19231,23.75079 0.15306,7.51793 0.28374,15.03365 0.14071,22.55345 0.0192,7.97189 0.14017,15.94241 -0.003,23.91329 -0.27164,7.41272 0.29102,14.83634 -0.14839,22.2523 0.19981,5.83994 -0.0364,11.70693 0.64374,17.5166 0.7295,6.68694 1.24392,13.33345 0.76654,20.07108 0.13432,7.50283 0.71649,14.99489 0.73002,22.5026 0.42937,7.56917 1.18015,15.13962 0.57466,22.7247 -0.12331,5.22893 -0.0595,10.46564 -0.51313,15.68213 -0.55883,6.75938 -1.47443,13.4752 -2.13916,20.22341 -0.56984,7.5678 -0.45545,15.21785 -1.88097,22.69718 0,0 -5.77604,2.94304 -5.77604,2.94304 z"
       inkscape:connector-curvature="0"
       transform="translate(0,452.36218)" />
    <path
       style="opacity:0.98999999000000005;fill:#a8a8a8;fill-opacity:1;stroke:none;stroke-width:6;stroke-linecap:round;stroke-linejoin:miter;stroke-miterlimit:4;stroke-opacity:1;stroke-dasharray:none;stroke-dashoffset:20"
       id="path3701"
       d="m 526.02441,56.547938 c 0.8123,7.345199 -1.05019,14.75474 -2.45593,21.930713 -1.5681,7.81475 -2.9066,15.69677 -3.76497,23.623809 -0.43383,6.01214 -0.30599,12.04615 -0.47941,18.07156 -0.1009,4.6127 -0.16472,9.22102 -0.0278,13.8333 0.12755,5.49591 0.0595,10.99394 0.10205,16.49197 -0.22141,6.05336 0.19177,12.10008 0.0809,18.15164 -0.21408,7.13596 -1.42181,14.19791 -2.38106,21.26184 -0.74752,4.95261 -0.55283,9.93396 -0.50691,14.91877 0.0452,5.65037 -0.0669,11.29863 -0.11656,16.9484 0.0635,5.51044 0.0857,11.0209 0.10223,16.5319 -0.13393,5.17521 -0.0522,10.35072 -0.0756,15.52595 0.0418,7.28475 0.39979,14.54462 0.8747,21.81138 0.23869,6.35585 0.20878,12.68875 0.99481,19.00536 0.8221,6.44005 1.16241,12.9215 1.40945,19.40497 0.30719,8.48374 -0.15462,16.96164 -0.18768,25.4445 -0.12169,5.73571 -0.27464,11.46392 -0.54377,17.19325 -0.18769,8.09241 -0.84809,16.15563 -1.4984,24.22092 -0.74439,6.51073 -0.77076,13.06068 -0.95625,19.60075 -0.0609,4.50719 -0.21616,9.01226 -0.30599,13.51887 0.21697,4.83678 0.17451,9.67862 0.27512,14.51843 0.65334,9.25546 2.07952,18.4488 3.14253,27.66767 0.81069,8.38761 1.30823,16.807 1.28988,25.23421 -0.0562,5.2694 -0.23605,10.53537 -0.39652,15.8022 -0.0857,3.87605 0.0555,7.75077 0.0167,11.62793 0.0481,4.2193 0.0295,8.43876 -0.002,12.65809 -0.0972,3.73848 -0.13772,7.46377 0.69797,11.1242 0.58433,2.02234 1.05062,4.06965 1.42236,6.14037 0,0 -5.7042,3.03899 -5.7042,3.03899 l 0,0 c -0.38909,-2.04553 -0.88768,-4.06163 -1.51844,-6.04766 -0.94667,-3.68072 -1.01572,-7.4011 -0.92151,-11.18662 -0.0317,-4.21961 -0.0498,-8.43938 0.003,-12.65893 -0.0336,-3.88987 0.11579,-7.77633 0.0544,-11.66531 -0.13686,-5.10285 -0.30997,-10.20561 -0.54202,-15.30485 -0.35723,-8.32307 -0.40689,-16.67175 -1.71141,-24.92381 -1.21652,-9.36129 -3.00725,-18.76073 -2.23942,-28.24072 0.0983,-4.92986 0.0557,-9.86143 0.25729,-14.7888 -0.10303,-4.41128 -0.27419,-8.82173 -0.26924,-13.23483 -0.0585,-6.44642 0.16774,-12.89158 0.3338,-19.33526 0.43988,-8.19074 1.29476,-16.3392 2.04819,-24.50504 0.61171,-5.66877 0.56945,-11.30186 0.28142,-16.9964 -0.024,-8.40022 -0.47859,-16.79268 -0.28349,-25.19494 0.11669,-6.62671 0.54474,-13.3044 -0.24767,-19.90179 -0.90201,-6.1444 -2.02587,-12.24621 -2.12614,-18.48639 -0.27784,-7.44887 -0.17413,-14.89004 0.0695,-22.33921 -0.0233,-5.14933 0.0593,-10.29892 -0.0767,-15.44819 0.0147,-5.54258 0.0342,-11.08445 0.0851,-16.62659 -0.0632,-5.61305 -0.2008,-11.22401 -0.11228,-16.83815 0.1115,-5.01714 0.37136,-10.03048 0.60378,-15.04267 0.44531,-6.99937 1.37052,-13.94792 1.84075,-20.94473 0.42211,-6.11445 0.59601,-12.23997 0.4191,-18.36815 0.0414,-5.5298 -0.0276,-11.05898 0.0866,-16.58699 0.11891,-4.59479 0.0312,-9.18369 -0.0848,-13.77792 -0.16545,-6.01802 -0.0777,-12.02455 0.27902,-18.03582 0.4327,-7.835976 1.2475,-15.632079 2.95303,-23.308159 1.27567,-7.606004 3.4189,-15.031781 4.28207,-22.695933 0,0 5.53079,-2.81808 5.53079,-2.81808 z"
       inkscape:connector-curvature="0"
       transform="translate(0,452.36218)" />
    <path
       style="opacity:0.98999999000000005;fill:#a8a8a8;fill-opacity:1;stroke:none;stroke-width:6;stroke-linecap:round;stroke-linejoin:miter;stroke-miterlimit:4;stroke-opacity:1;stroke-dasharray:none;stroke-dashoffset:20"
       id="path3705"
       d="m 200.30788,171.05624 c 8.62356,-0.59566 17.28381,-0.56918 25.92561,-0.67692 19.41043,-0.70942 38.85886,-0.84438 58.25178,0.30223 11.9509,0.98002 23.91067,1.79031 35.87551,2.57312 8.46099,0.67453 16.90509,0.0265 25.36522,-0.17339 2.07066,0.005 4.14182,-0.0315 6.21197,0.0144 1.89643,0.0421 3.78841,0.23018 5.68521,0.24942 12.12137,0.12296 24.25474,-0.67768 36.37492,-0.78152 5.26134,-0.0451 10.52301,0.0359 15.78451,0.0539 21.00415,0.24772 41.98834,1.38006 62.99104,1.60551 14.18686,-0.37905 28.36862,0.38137 42.55201,0.3064 15.85964,-1.13663 31.76334,-1.06296 47.64424,-1.63633 8.02714,-0.28163 15.93547,-1.65291 23.8855,-2.65619 4.32676,-0.55195 8.68692,-0.68651 13.04351,-0.70667 4.1449,0.0332 8.29135,-0.1857 12.42864,0.0849 3.1608,0.32724 1.60837,0.15523 4.65756,0.51382 0,0 -5.62289,3.99532 -5.62289,3.99532 l 0,0 c -3.10756,-0.29355 -1.53566,-0.14592 -4.71572,-0.44278 -4.03552,-0.30974 -8.08012,-0.28534 -12.12566,-0.22804 -4.49237,0.1499 -8.98905,0.37998 -13.43208,1.10476 -8.45646,1.43793 -16.87669,3.1358 -25.45351,3.7288 -15.81444,1.23625 -31.67286,1.92133 -47.53981,1.49576 -14.45814,-0.0695 -28.91493,0.6982 -43.37613,0.28957 -22.12765,0.14315 -44.24704,1.02439 -66.37933,0.83959 -15.23736,-0.28416 -14.8679,-0.10395 -29.63939,-1.02969 -10.1053,-0.63331 -20.18164,-1.91965 -30.32946,-1.4576 -8.13464,-0.21096 -16.24537,-0.80224 -24.39213,-0.56309 -12.8375,0.0139 -25.66845,-0.4812 -38.50349,-0.68596 -18.7437,-0.33275 -37.46775,-1.09894 -56.20152,-1.73982 -8.01922,-0.10354 -16.06646,-0.0451 -24.0622,-0.67693 0,0 5.09609,-3.70252 5.09609,-3.70252 z"
       inkscape:connector-curvature="0"
       transform="translate(0,452.36218)" />
    <path
       style="opacity:0.98999999000000005;fill:#a8a8a8;fill-opacity:1;stroke:none;stroke-width:6;stroke-linecap:round;stroke-linejoin:miter;stroke-miterlimit:4;stroke-opacity:1;stroke-dasharray:none;stroke-dashoffset:20"
       id="path3707"
       d="m 600.85854,545.76391 c -1.26154,-9.61414 -0.79377,-19.31104 0.30088,-28.90921 1.14261,-8.24142 2.09895,-16.50586 3.34621,-24.73263 1.12687,-7.63583 2.23026,-15.26148 3.44471,-22.88441 0.82009,-8.43493 1.27841,-16.89754 2.13028,-25.33318 0.86666,-8.02152 1.31849,-16.08675 1.71167,-24.14437 0.0898,-6.49074 0.0535,-12.98196 -0.90996,-19.41092 -2.13661,-8.48924 -3.8323,-17.07629 -5.76015,-25.61404 -1.69615,-8.46916 -2.39415,-17.05677 -3.09953,-25.64834 -0.90099,-8.01182 -1.33778,-16.07949 -1.41304,-24.14019 -0.78057,-10.58455 -0.79485,-21.2031 -0.50316,-31.80623 0.48194,-7.4972 0.55615,-14.98261 0.16268,-22.48169 -0.61832,-10.43151 -0.34281,-20.87491 0.11982,-31.3049 -0.0608,-9.5077 -0.29973,-19.0109 -0.34388,-28.51887 -0.31005,-10.94919 0.0897,-21.89593 0.093,-32.84394 -0.76426,-12.46104 -0.32737,-24.87861 0.4984,-37.31651 0.75757,-9.12386 1.80312,-18.2194 2.27351,-27.36504 0.38654,-6.83354 0.61325,-13.656267 0.37387,-20.496646 -0.0676,-5.993343 0.0344,-11.98397 0.1334,-17.975971 0,0 6.57663,-3.351667 6.57663,-3.351667 l 0,0 c 0.11017,5.944996 0.22546,11.888627 0.14747,17.835295 -0.25692,6.82712 -0.11373,13.648019 -0.26222,20.477389 -0.34632,9.00028 -0.87962,17.98555 -1.49645,26.97136 -0.2311,12.47395 -0.38485,24.94925 -0.78244,37.41962 0.003,10.91635 0.40449,21.83145 0.0931,32.74908 -0.0444,9.62472 -0.28264,19.24484 -0.34385,28.86931 0.48212,10.39056 0.71969,20.79363 0.1133,31.18643 -0.37618,7.44817 -0.37012,14.88417 0.13429,22.33002 0.30373,10.71373 0.20962,21.42956 -0.20053,32.13986 0.39527,8.00003 0.77982,15.99493 1.62866,23.96467 1.05212,8.53442 1.46242,17.14728 2.95963,25.6301 0.24703,1.28325 0.41879,2.5833 0.74109,3.84974 0.65938,2.59097 1.86404,5.0249 2.35298,7.66775 1.18017,4.6949 1.91943,9.50393 2.39692,14.31661 0.55293,6.49243 1.46788,12.98119 0.9406,19.51297 0.002,7.96004 -0.20403,15.9076 -0.9746,23.83736 -0.79502,8.59235 -1.66695,17.16972 -2.83612,25.7178 -0.87669,7.57185 -1.82295,15.13802 -3.00801,22.66845 -0.99301,8.1677 -2.77787,16.23105 -2.93261,24.48968 -0.72689,9.86138 -1.05325,19.7233 -1.78533,29.57726 0,0 -6.0213,3.068 -6.0213,3.068 z"
       inkscape:connector-curvature="0"
       transform="translate(0,452.36218)" />
    <path
       style="opacity:0.98999999000000005;fill:#a8a8a8;fill-opacity:1;stroke:none;stroke-width:6;stroke-linecap:round;stroke-linejoin:miter;stroke-miterlimit:4;stroke-opacity:1;stroke-dasharray:none;stroke-dashoffset:20"
       id="path3711"
       d="m 187.98993,534.74688 c -2.87159,-16.85967 -1.42714,-33.9752 0.0686,-50.88767 1.83541,-18.90426 3.49153,-37.81884 5.77729,-56.67573 1.62595,-14.30105 2.50929,-28.66924 2.84553,-43.05496 0.14786,-13.42005 -0.0299,-26.84119 -0.0192,-40.26265 0.49747,-10.49455 0.22624,-20.96925 -0.35646,-31.45061 0.12745,-8.6634 -0.91565,-17.2623 -1.28762,-25.90309 -0.33171,-7.7116 -0.22082,-15.43644 -0.62294,-23.14462 -0.26014,-7.84447 -1.8804,-15.53348 -3.00962,-23.27552 -0.95807,-10.19841 -1.31356,-20.46628 -1.38326,-30.70887 -0.4971,-11.36409 -0.0605,-22.73233 -0.0915,-34.09683 -0.88615,-14.94862 -0.57384,-29.90695 -0.49651,-44.86881 -0.30816,-14.59938 -0.90588,-29.18386 -1.00857,-43.788563 3.7e-4,-7.387789 0.10793,-14.776245 0.33901,-22.160317 0,0 7.21448,-3.681608 7.21448,-3.681608 l 0,0 c 0.32495,7.183748 0.5508,14.371741 0.81428,21.557997 0.46116,14.552373 0.84307,29.106461 1.30341,43.658851 0.0736,15.13645 0.36461,30.26883 -0.52911,45.3919 -0.0472,11.37155 0.34761,22.74589 0.0229,34.11944 0.18089,10.25744 0.21471,20.50617 1.16619,30.73412 0.51125,7.90847 1.94229,15.67324 2.53175,23.57167 0.38414,7.67066 0.19745,15.35996 0.85486,23.02096 0.58675,8.59366 1.02136,17.19866 1.51035,25.79797 0.35312,10.3266 1.44775,20.61518 1.40339,30.95768 0.0349,13.47378 -0.0595,26.94396 -0.24385,40.41646 -0.19163,14.19364 -0.40185,28.39663 -1.65596,42.5463 -1.47453,18.79136 -3.89416,37.48526 -5.09274,56.29544 -0.82322,17.6734 -2.18891,35.32925 -4.19688,52.90637 0,0 -5.8578,2.98469 -5.8578,2.98469 z"
       inkscape:connector-curvature="0"
       transform="translate(0,452.36218)" />
    <path
       style="opacity:0.98999999000000005;fill:#a8a8a8;fill-opacity:1;stroke:none;stroke-width:6;stroke-linecap:round;stroke-linejoin:miter;stroke-miterlimit:4;stroke-opacity:1;stroke-dasharray:none;stroke-dashoffset:20"
       id="path3713"
       d="m 182.77795,56.208334 c 3.62152,-0.222511 7.23808,-0.551333 10.86458,-0.667531 11.0563,-0.35426 22.1229,-0.235082 33.18311,-0.432514 8.33634,-0.148809 16.67079,-0.431047 25.00827,-0.486038 20.54207,-0.135488 27.46544,0.217696 47.44093,0.773209 25.99798,1.598314 52.0221,0.498756 78.03128,0.08241 22.24701,-0.356121 19.88539,-0.261299 41.38085,-0.170776 31.1637,0.633116 62.26121,-1.685897 93.39105,-2.579536 21.70674,-0.32138 43.4142,-0.155423 65.12333,-0.30623 14.56381,0.166144 29.11751,0.871485 43.65702,1.698796 0,0 -7.29037,5.278384 -7.29037,5.278384 l 0,0 c -15.35875,0.305329 -30.72652,0.421171 -46.08534,0.06076 -6.9345,-0.274518 -14.1998,-0.641533 -21.15784,-0.630631 -15.09199,0.02365 -30.14427,1.59101 -45.22679,1.937957 -10.02218,0.445031 -20.04933,0.774149 -30.07099,1.230553 -21.90306,0.997503 -43.7775,2.686492 -65.70888,3.038874 -40.20198,0.779839 -80.40334,0.02816 -120.60431,0.912587 -18.89099,0.07006 -28.8348,0.303918 -47.90474,-0.450995 -7.51367,-0.29744 -15.01578,-0.841131 -22.5193,-1.331776 -2.73602,-0.178904 -24.75785,-1.770457 -29.39443,-2.317572 -2.69522,-0.318035 -5.35335,-0.896126 -8.03002,-1.344188 0,0 5.91259,-4.295744 5.91259,-4.295744 z"
       inkscape:connector-curvature="0"
       transform="translate(0,452.36218)" />
    <path
       style="opacity:0.98999999000000005;fill:#a8a8a8;fill-opacity:1;stroke:none;stroke-width:6;stroke-linecap:round;stroke-linejoin:miter;stroke-miterlimit:4;stroke-opacity:1;stroke-dasharray:none;stroke-dashoffset:20"
       id="path3717"
       d="m 174.85203,537.33756 c 34.88274,-4.64131 70.11575,-4.22825 105.21295,-3.50075 5.20555,-0.0564 10.41096,-0.12687 15.61664,-0.16914 12.84809,-0.10434 13.85986,0.0412 26.33117,-0.33871 9.80938,-0.29882 19.61075,-0.87283 29.41654,-1.26874 15.78934,-1.11516 31.61119,-1.09603 47.42347,-1.47475 10.86018,-0.0127 21.67007,-1.09341 32.50271,-1.67668 8.96082,-0.48248 12.97096,-0.48106 21.75624,-0.63923 15.47258,-0.36172 30.94453,-0.39377 46.41801,-0.11678 1.80298,0.007 3.6064,0.0618 5.40895,0.0215 23.72835,-0.53081 -10.13606,-0.13946 17.10964,-0.57644 8.3959,-0.13466 16.79058,0.0505 25.18455,0.20204 6.09319,0.20551 12.22168,0.0365 18.30608,0.5133 3.8579,0.3023 7.67864,1.03815 11.4781,1.74033 6.03338,0.43509 11.98391,1.26743 17.96247,2.15424 3.83076,0.66188 1.87917,0.3627 5.85589,0.89034 0,0 -5.96711,4.20525 -5.96711,4.20525 l 0,0 c -3.91068,-0.61787 -1.98095,-0.29761 -5.78956,-0.95867 -5.98858,-1.15987 -12.09737,-1.14076 -18.13024,-2.00908 -10.54167,-1.03084 -21.09071,-1.21452 -31.6762,-0.75237 -8.57664,0.14286 -17.1562,0.33477 -25.73451,0.19882 -2.87324,-0.0455 -5.74485,-0.16443 -8.61727,-0.24664 -2.31926,-0.0958 -4.63687,-0.24828 -6.95778,-0.28743 -1.84633,-0.0312 -3.69283,0.0511 -5.53925,0.0766 -16.154,0.52272 -32.31098,0.97633 -48.45978,1.63568 -8.27497,0.36986 -13.56926,0.67888 -21.90758,0.75024 -10.31986,0.0883 -20.64372,-0.51926 -30.94047,0.53699 -16.00025,0.70976 -32.04092,0.59473 -48.00621,1.94617 -24.91305,2.3998 -49.89898,3.92178 -74.9302,4.29749 -26.63203,1.03849 -53.41964,2.41025 -80.05629,0.73112 -7.75926,-0.48913 -11.72573,-1.16734 -18.36704,-2.18217 0,0 5.09608,-3.70252 5.09608,-3.70252 z"
       inkscape:connector-curvature="0"
       transform="translate(0,452.36218)" />
  </g>
</svg>
