<?xml version="1.0" encoding="UTF-8" standalone="no"?>
<!-- Created with Inkscape (http://www.inkscape.org/) -->

<svg
   xmlns:dc="http://purl.org/dc/elements/1.1/"
   xmlns:cc="http://creativecommons.org/ns#"
   xmlns:rdf="http://www.w3.org/1999/02/22-rdf-syntax-ns#"
   xmlns:svg="http://www.w3.org/2000/svg"
   xmlns="http://www.w3.org/2000/svg"
   xmlns:sodipodi="http://sodipodi.sourceforge.net/DTD/sodipodi-0.dtd"
   xmlns:inkscape="http://www.inkscape.org/namespaces/inkscape"
   width="32"
   height="32"
   id="svg2985"
   version="1.1"
   inkscape:version="0.48.4 r9939"
   sodipodi:docname="gen_solider.svg"
   inkscape:export-filename="D:\Programmation\Javascript\7DRTS\0_0_5\assets\gfx\gen_solider.png"
   inkscape:export-xdpi="90"
   inkscape:export-ydpi="90">
  <defs
     id="defs2987" />
  <sodipodi:namedview
     id="base"
     pagecolor="#ffffff"
     bordercolor="#666666"
     borderopacity="1.0"
     inkscape:pageopacity="0.0"
     inkscape:pageshadow="2"
     inkscape:zoom="5.6"
     inkscape:cx="26.585619"
     inkscape:cy="5.765905"
     inkscape:document-units="px"
     inkscape:current-layer="layer1"
     showgrid="false"
     inkscape:window-width="1600"
     inkscape:window-height="837"
     inkscape:window-x="-32000"
     inkscape:window-y="-32000"
     inkscape:window-maximized="0" />
  <metadata
     id="metadata2990">
    <rdf:RDF>
      <cc:Work
         rdf:about="">
        <dc:format>image/svg+xml</dc:format>
        <dc:type
           rdf:resource="http://purl.org/dc/dcmitype/StillImage" />
        <dc:title></dc:title>
      </cc:Work>
    </rdf:RDF>
  </metadata>
  <g
     inkscape:label="Calque 1"
     inkscape:groupmode="layer"
     id="layer1"
     transform="translate(0,-1020.3622)">
    <path
       sodipodi:type="arc"
       style="fill:#c8b7b7;fill-opacity:1;stroke:#000000;stroke-width:1.08441556000000010;stroke-miterlimit:4;stroke-opacity:1;stroke-dasharray:none"
       id="path6427"
       sodipodi:cx="1.0714285"
       sodipodi:cy="48.107143"
       sodipodi:rx="11.428572"
       sodipodi:ry="11.428572"
       d="m 12.5,48.107143 a 11.428572,11.428572 0 1 1 -22.857143,0 11.428572,11.428572 0 1 1 22.857143,0 z"
       transform="matrix(0.92215567,0,0,0.92215567,15.050898,991.961)"
       inkscape:export-xdpi="90"
       inkscape:export-ydpi="90" />
    <g
       transform="matrix(1.0356272,0,0,1.0356272,-61.094358,-18.573615)"
       id="g6258">
      <path
         transform="matrix(0.08321115,0,0,0.09665466,72.297523,1006.644)"
         d="m 59.598618,69.524033 c 0,14.659803 -14.126406,26.543922 -31.55221,26.543922 -17.425805,0 -31.5522102,-11.884119 -31.5522102,-26.543922 0,-14.659804 14.1264052,-26.543923 31.5522102,-26.543923 17.425804,0 31.55221,11.884119 31.55221,26.543923 z"
         sodipodi:ry="26.543922"
         sodipodi:rx="31.55221"
         sodipodi:cy="69.524033"
         sodipodi:cx="28.046408"
         id="path5977"
         style="fill:#000000;fill-opacity:1;stroke:#000000;stroke-width:1;stroke-linecap:round;stroke-linejoin:miter;stroke-miterlimit:4;stroke-opacity:1;stroke-dasharray:none;stroke-dashoffset:0"
         sodipodi:type="arc" />
      <path
         sodipodi:nodetypes="sssss"
         inkscape:connector-curvature="0"
         id="path5977-3"
         d="m 76.7372,1017.9662 c 0.08012,2.3847 -0.926212,2.6187 -2.068754,2.6187 -1.142541,0 -2.228995,-0.4157 -2.068754,-2.6187 0.105039,-1.4441 -1.239462,-2.5111 1.988634,-2.5885 3.026656,-0.073 2.100297,1.1427 2.148874,2.5885 z"
         style="fill:#000000;fill-opacity:1;stroke:#000000;stroke-width:0.09447189;stroke-linecap:round;stroke-linejoin:miter;stroke-miterlimit:4;stroke-opacity:1;stroke-dashoffset:0" />
      <path
         sodipodi:nodetypes="sssss"
         inkscape:connector-curvature="0"
         id="path6000"
         d="m 74.286164,1021.8659 c -0.06684,1.1809 -0.783116,1.838 -1.079224,1.8213 -0.296107,-0.017 -0.759966,-1.0034 -0.693122,-2.1842 0.06685,-1.1809 0.733522,-1.6657 1.02963,-1.649 0.296107,0.017 0.80956,0.8311 0.742716,2.0119 z"
         style="fill:#000000;fill-opacity:1;stroke:#000000;stroke-width:0.1665068;stroke-linecap:round;stroke-linejoin:miter;stroke-miterlimit:4;stroke-opacity:1;stroke-dashoffset:0" />
      <path
         sodipodi:nodetypes="sssss"
         inkscape:connector-curvature="0"
         id="path6000-9"
         d="m 74.257072,1024.7043 c 0,1.0807 -0.680652,1.7172 -0.978399,1.7172 -0.297747,0 -0.818661,-0.8761 -0.818661,-1.9568 0,-1.0807 0.640718,-1.5574 0.938465,-1.5574 0.297747,0 0.858595,0.7163 0.858595,1.797 z"
         style="fill:#000000;fill-opacity:1;stroke:#000000;stroke-width:0.15947436;stroke-linecap:round;stroke-linejoin:miter;stroke-miterlimit:4;stroke-opacity:1;stroke-dashoffset:0" />
      <path
         sodipodi:nodetypes="sssss"
         inkscape:connector-curvature="0"
         id="path6000-95-1"
         d="m 76.927819,1017.857 c 0.623997,0.8823 1.547225,1.009 1.790325,0.8371 0.2431,-0.1719 0.162559,-1.188 -0.461438,-2.0704 -0.623996,-0.8823 -1.422383,-0.9016 -1.665483,-0.7297 -0.2431,0.1719 -0.2874,1.0806 0.336596,1.963 z"
         style="fill:#000000;fill-opacity:1;stroke:#000000;stroke-width:0.15947436;stroke-linecap:round;stroke-linejoin:miter;stroke-miterlimit:4;stroke-opacity:1;stroke-dashoffset:0" />
      <path
         sodipodi:nodetypes="sssss"
         inkscape:connector-curvature="0"
         id="path6000-9-1-1"
         d="m 77.545292,1019.749 c 0.04708,1.0797 0.754796,1.6859 1.052266,1.6729 0.297462,-0.013 0.779727,-0.9109 0.732653,-1.9905 -0.04707,-1.0797 -0.707944,-1.5281 -1.005415,-1.5151 -0.297461,0.013 -0.826578,0.753 -0.779504,1.8327 z"
         style="fill:#000000;fill-opacity:1;stroke:#000000;stroke-width:0.15947436;stroke-linecap:round;stroke-linejoin:miter;stroke-miterlimit:4;stroke-opacity:1;stroke-dashoffset:0" />
      <path
         sodipodi:nodetypes="sssss"
         inkscape:connector-curvature="0"
         id="path6000-95-1-2"
         d="m 72.230169,1017.6721 c -0.623996,0.8824 -1.547225,1.0091 -1.790325,0.8372 -0.243099,-0.172 -0.162558,-1.188 0.461438,-2.0704 0.623996,-0.8824 1.422383,-0.9016 1.665484,-0.7297 0.2431,0.1719 0.2874,1.0806 -0.336597,1.9629 z"
         style="fill:#000000;fill-opacity:1;stroke:#000000;stroke-width:0.15947436;stroke-linecap:round;stroke-linejoin:miter;stroke-miterlimit:4;stroke-opacity:1;stroke-dashoffset:0" />
      <path
         sodipodi:nodetypes="sssss"
         inkscape:connector-curvature="0"
         id="path6000-9-1-1-3"
         d="m 71.333534,1019.7171 c 0.0075,1.0807 -0.668762,1.7218 -0.966509,1.7239 -0.297737,0 -0.824697,-0.8704 -0.832166,-1.9511 -0.0075,-1.0807 0.629937,-1.5618 0.927682,-1.5639 0.297737,0 0.863526,0.7104 0.870993,1.7911 z"
         style="fill:#000000;fill-opacity:1;stroke:#000000;stroke-width:0.15947436;stroke-linecap:round;stroke-linejoin:miter;stroke-miterlimit:4;stroke-opacity:1;stroke-dashoffset:0" />
      <path
         sodipodi:nodetypes="sssss"
         inkscape:connector-curvature="0"
         id="path6000-3"
         d="m 77.020347,1021.5683 c 0.211631,1.1637 -0.330775,1.9704 -0.62257,2.0234 -0.291795,0.053 -0.973858,-0.7974 -1.185492,-1.9611 -0.211633,-1.1636 0.32292,-1.7912 0.614715,-1.8442 0.291795,-0.053 0.981714,0.6183 1.193347,1.7819 z"
         style="fill:#000000;fill-opacity:1;stroke:#000000;stroke-width:0.1665068;stroke-linecap:round;stroke-linejoin:miter;stroke-miterlimit:4;stroke-opacity:1;stroke-dashoffset:0" />
      <path
         sodipodi:nodetypes="sssss"
         inkscape:connector-curvature="0"
         id="path6000-9-9"
         d="m 77.191644,1024.7028 c 0,1.0807 -0.680653,1.7172 -0.978399,1.7172 -0.297747,0 -0.818661,-0.8761 -0.818661,-1.9568 0,-1.0807 0.640718,-1.5575 0.938465,-1.5575 0.297746,0 0.858595,0.7164 0.858595,1.7971 z"
         style="fill:#000000;fill-opacity:1;stroke:#000000;stroke-width:0.15947436;stroke-linecap:round;stroke-linejoin:miter;stroke-miterlimit:4;stroke-opacity:1;stroke-dashoffset:0" />
      <path
         sodipodi:nodetypes="sssss"
         inkscape:connector-curvature="0"
         id="path6000-2"
         d="m 74.701649,1021.2809 c -0.450137,0.051 -0.729514,-0.4453 -0.735757,-0.6753 -0.0062,-0.2301 0.34774,-0.6737 0.797883,-0.7245 0.450137,-0.051 0.662142,0.422 0.668384,0.652 0.0062,0.2301 -0.280373,0.6971 -0.73051,0.7478 z"
         style="fill:#000000;fill-opacity:1;stroke:#000000;stroke-width:0.09060771;stroke-linecap:round;stroke-linejoin:miter;stroke-miterlimit:4;stroke-opacity:1;stroke-dashoffset:0" />
      <rect
         y="1012.5206"
         x="70.050026"
         height="13.970246"
         width="0.76332605"
         id="rect6160"
         style="fill:#000000;fill-opacity:1;stroke:#000000;stroke-width:0.14798345;stroke-linecap:round;stroke-linejoin:miter;stroke-miterlimit:4;stroke-opacity:1;stroke-dasharray:none;stroke-dashoffset:0" />
      <path
         sodipodi:nodetypes="ccscccc"
         inkscape:connector-curvature="0"
         id="path6164"
         d="m 70.409803,1015.1102 -0.586691,-1.528 c 0,0 -0.963095,0.1148 -0.172358,-1.3605 0.784585,-1.4638 0.757889,-1.3997 0.757889,-1.3997 l 0.715251,1.3914 c 0,0 0.900477,1.4862 -0.107819,1.3219 -0.08287,0.1767 -0.606272,1.5749 -0.606272,1.5749 z"
         style="fill:#000000;fill-opacity:1;stroke:none" />
    </g>
  </g>
</svg>
