<?xml version="1.0" encoding="UTF-8" standalone="no"?>
<!-- Created with Inkscape (http://www.inkscape.org/) -->

<svg
   xmlns:dc="http://purl.org/dc/elements/1.1/"
   xmlns:cc="http://creativecommons.org/ns#"
   xmlns:rdf="http://www.w3.org/1999/02/22-rdf-syntax-ns#"
   xmlns:svg="http://www.w3.org/2000/svg"
   xmlns="http://www.w3.org/2000/svg"
   xmlns:xlink="http://www.w3.org/1999/xlink"
   xmlns:sodipodi="http://sodipodi.sourceforge.net/DTD/sodipodi-0.dtd"
   xmlns:inkscape="http://www.inkscape.org/namespaces/inkscape"
   width="100"
   height="100"
   id="svg4837"
   version="1.1"
   inkscape:version="0.48.4 r9939"
   sodipodi:docname="pinata.svg"
   inkscape:export-filename="D:\Programmation\Javascript\GD15\pinata.png"
   inkscape:export-xdpi="90"
   inkscape:export-ydpi="90">
  <defs
     id="defs4839">
    <linearGradient
       id="linearGradient6649">
      <stop
         style="stop-color:#c800e8;stop-opacity:1;"
         offset="0"
         id="stop6651" />
      <stop
         id="stop6671"
         offset="0.13496101"
         style="stop-color:#6a93db;stop-opacity:1;" />
      <stop
         id="stop6669"
         offset="0.30748862"
         style="stop-color:#ffe909;stop-opacity:1;" />
      <stop
         id="stop6667"
         offset="0.45893136"
         style="stop-color:#08e500;stop-opacity:1;" />
      <stop
         id="stop6663"
         offset="0.55953509"
         style="stop-color:#d220ff;stop-opacity:1;" />
      <stop
         id="stop6661"
         offset="0.65671194"
         style="stop-color:#ff0707;stop-opacity:1;" />
      <stop
         style="stop-color:#00807d;stop-opacity:1;"
         offset="0.7654478"
         id="stop6665" />
      <stop
         id="stop6659"
         offset="0.86840415"
         style="stop-color:#5c8c2b;stop-opacity:1;" />
      <stop
         id="stop6657"
         offset="0.94472545"
         style="stop-color:#d10057;stop-opacity:1;" />
      <stop
         style="stop-color:#000000;stop-opacity:1;"
         offset="1"
         id="stop6653" />
    </linearGradient>
    <linearGradient
       inkscape:collect="always"
       xlink:href="#linearGradient6649"
       id="linearGradient6655"
       x1="29.642857"
       y1="10.704996"
       x2="29.642857"
       y2="72.5"
       gradientUnits="userSpaceOnUse" />
  </defs>
  <sodipodi:namedview
     id="base"
     pagecolor="#ffffff"
     bordercolor="#666666"
     borderopacity="1.0"
     inkscape:pageopacity="0.0"
     inkscape:pageshadow="2"
     inkscape:zoom="5.6"
     inkscape:cx="104.92897"
     inkscape:cy="58.445822"
     inkscape:document-units="px"
     inkscape:current-layer="layer1"
     showgrid="false"
     inkscape:window-width="1600"
     inkscape:window-height="837"
     inkscape:window-x="-8"
     inkscape:window-y="-8"
     inkscape:window-maximized="1"
     showguides="true"
     inkscape:guide-bbox="true" />
  <metadata
     id="metadata4842">
    <rdf:RDF>
      <cc:Work
         rdf:about="">
        <dc:format>image/svg+xml</dc:format>
        <dc:type
           rdf:resource="http://purl.org/dc/dcmitype/StillImage" />
        <dc:title></dc:title>
      </cc:Work>
    </rdf:RDF>
  </metadata>
  <g
     inkscape:label="Calque 1"
     inkscape:groupmode="layer"
     id="layer1"
     transform="translate(0,-952.36215)">
    <path
       style="fill:url(#linearGradient6655);fill-opacity:1;stroke:none"
       d="M 39.625 10.3125 C 37.937712 11.933152 37.855479 18.963335 37.9375 22.90625 L 32.5625 22.90625 C 31.144038 22.90625 30 24.050288 30 25.46875 L 30 27.5625 L 27.25 32.96875 C 26.802911 33.85057 24.726883 34.88971 24.875 36.21875 L 24.9375 36.90625 C 25.085616 38.23529 25.984554 38.86458 27.09375 39.3125 L 30 40.5 L 30 41.4375 C 30 41.614808 30.028505 41.801774 30.0625 41.96875 C 30.031098 42.229107 30 42.480905 30 42.75 L 30 54.75 L 30 71.59375 L 30 76.59375 L 40 76.59375 L 40 71.59375 L 40 61.25 L 60 61.25 L 60 71.59375 L 60 76.59375 L 70 76.59375 L 70 71.59375 L 70 54.75 L 70 53.59375 L 70.59375 54.4375 L 74.6875 63.78125 L 76.53125 62.96875 L 76.46875 62.8125 L 76.875 63.40625 L 78.5 62.28125 L 74.71875 56.84375 L 77.6875 60.21875 L 79.1875 58.875 L 70 48.5 L 70 42.75 C 70 39.142017 67.107983 36.25 63.5 36.25 L 45 36.25 L 45 25.46875 C 45 25.226256 44.968675 25.003257 44.90625 24.78125 L 44.96875 24.78125 C 44.96875 24.78125 43.346674 11.64634 39.625 10.3125 z "
       transform="translate(0,952.36215)"
       id="rect6408" />
    <path
       sodipodi:type="arc"
       style="fill:#ff0000;fill-opacity:1;stroke:none"
       id="path5093"
       sodipodi:cx="44.194176"
       sodipodi:cy="51.512676"
       sodipodi:rx="30.304577"
       sodipodi:ry="15.152288"
       d="m 74.498753,51.512676 a 30.304577,15.152288 0 1 1 -60.609154,0 30.304577,15.152288 0 1 1 60.609154,0 z"
       transform="translate(132.83506,922.81519)" />
    <path
       sodipodi:type="arc"
       style="fill:#ff0000;fill-opacity:1;stroke:none"
       id="path5093-2"
       sodipodi:cx="44.194176"
       sodipodi:cy="51.512676"
       sodipodi:rx="30.304577"
       sodipodi:ry="15.152288"
       d="m 74.498753,51.512676 a 30.304577,15.152288 0 1 1 -60.609154,0 30.304577,15.152288 0 1 1 60.609154,0 z"
       transform="matrix(0,0.55000001,-1,0,249.75512,938.40432)" />
    <path
       sodipodi:type="arc"
       style="fill:#ff0000;fill-opacity:1;stroke:none"
       id="path5093-2-7"
       sodipodi:cx="44.194176"
       sodipodi:cy="51.512676"
       sodipodi:rx="30.304577"
       sodipodi:ry="15.152288"
       d="m 74.498753,51.512676 a 30.304577,15.152288 0 1 1 -60.609154,0 30.304577,15.152288 0 1 1 60.609154,0 z"
       transform="matrix(0,0.55000001,-1,0,267.18025,927.54518)" />
    <path
       sodipodi:type="arc"
       style="fill:#ff0000;fill-opacity:1;stroke:none"
       id="path5093-2-7-9-5"
       sodipodi:cx="44.194176"
       sodipodi:cy="51.512676"
       sodipodi:rx="30.304577"
       sodipodi:ry="15.152288"
       d="m 74.498753,51.512676 a 30.304577,15.152288 0 1 1 -60.609154,0 30.304577,15.152288 0 1 1 60.609154,0 z"
       transform="matrix(0,0.39166668,-0.60833334,0,228.06409,972.42336)" />
    <rect
       style="fill:#800000;fill-opacity:1;stroke:none"
       id="rect6408-4"
       width="15"
       height="2"
       x="905.54346"
       y="428.14697"
       ry="0"
       transform="matrix(0.40153513,0.91584362,-0.91584362,0.40153513,0,0)" />
    <rect
       style="fill:#800080;fill-opacity:1;stroke:none"
       id="rect6408-7-8"
       width="15"
       height="2"
       x="729.0451"
       y="684.63141"
       ry="0"
       transform="matrix(0.66257413,0.74899634,-0.74899634,0.66257413,0,0)" />
    <rect
       style="fill:#0000ff;fill-opacity:1;stroke:none"
       id="rect6408-7-4-6"
       width="15"
       height="2"
       x="804.42914"
       y="598.11682"
       ry="0"
       transform="matrix(0.57313411,0.81946159,-0.81946159,0.57313411,0,0)" />
    <rect
       style="fill:#000080;fill-opacity:1;stroke:none"
       id="rect6365-5"
       width="10"
       height="20"
       x="-69.001801"
       y="1003.6255" />
    <rect
       style="fill:#000000;fill-opacity:1;stroke:none"
       id="rect6365-1-0"
       width="10"
       height="5"
       x="-69.001801"
       y="1023.6254" />
    <rect
       style="fill:#000080;fill-opacity:1;stroke:none"
       id="rect6365-3-9"
       width="10"
       height="20"
       x="-39.00169"
       y="1003.6257" />
    <rect
       style="fill:#000000;fill-opacity:1;stroke:none"
       id="rect6365-1-8-0"
       width="10"
       height="5"
       x="-39.00169"
       y="1023.6256" />
    <rect
       style="fill:#ff00ff;fill-opacity:1;stroke:none"
       id="rect6406-0"
       width="40"
       height="25"
       x="-69.001801"
       y="988.27258"
       ry="6.5126052" />
    <rect
       style="fill:#ffff00;fill-opacity:1;stroke:none"
       id="rect6406-2-6"
       width="15"
       height="21.085659"
       x="-69.001801"
       y="980.93701"
       ry="2.5604014" />
    <path
       style="fill:#501616;fill-opacity:1;stroke:none"
       inkscape:transform-center-y="-2.4999939"
       d="m -57.5018,969.02251 c 3.527165,1.7858 3.5,15.00012 3.5,15.00012 l -7,0 c 0,0 0.865693,-13.03582 3.5,-15.00012 z"
       id="path6482-1"
       inkscape:connector-curvature="0"
       sodipodi:nodetypes="cccc" />
    <path
       style="fill:#ffff00;fill-opacity:1;stroke:none"
       d="m -71.748849,993.43713 3.516738,-9.3594 c 0.447092,-1.1899 3.169397,8.5259 3.169397,10.3332 l 0,4.3495 c 0,1.80717 -0.963023,3.26207 -2.159244,3.26207 l -4.678361,0 c -1.196221,0 -2.011128,-1.4688 -2.159244,-3.26207 l -0.07573,-0.917 c -0.148117,-1.7933 1.939355,-3.2164 2.386444,-4.4063 z"
       id="rect6406-2-7-3"
       inkscape:connector-curvature="0"
       sodipodi:nodetypes="sssssssss" />
    <rect
       style="fill:#800000;fill-opacity:1;stroke:none"
       id="rect6408-8"
       width="15"
       height="2"
       x="848.62018"
       y="504.6637"
       ry="0"
       transform="matrix(0.40153513,0.91584362,-0.91584362,0.40153513,0,0)" />
    <rect
       style="fill:#800080;fill-opacity:1;stroke:none"
       id="rect6408-7-9"
       width="15"
       height="2"
       x="651.43439"
       y="740.05383"
       ry="0"
       transform="matrix(0.66257413,0.74899634,-0.74899634,0.66257413,0,0)" />
    <rect
       style="fill:#0000ff;fill-opacity:1;stroke:none"
       id="rect6408-7-4-3"
       width="15"
       height="2"
       x="733.62189"
       y="662.00269"
       ry="0"
       transform="matrix(0.57313411,0.81946159,-0.81946159,0.57313411,0,0)" />
    <rect
       style="fill:#000080;fill-opacity:1;stroke:none"
       id="rect6365-4"
       width="10"
       height="20"
       x="-161.93582"
       y="982.21686" />
    <rect
       style="fill:#000000;fill-opacity:1;stroke:none"
       id="rect6365-1-4"
       width="10"
       height="5"
       x="-161.93582"
       y="1002.2169" />
    <rect
       style="fill:#000080;fill-opacity:1;stroke:none"
       id="rect6365-3-6"
       width="10"
       height="20"
       x="-131.93571"
       y="982.2171" />
    <rect
       style="fill:#000000;fill-opacity:1;stroke:none"
       id="rect6365-1-8-06"
       width="10"
       height="5"
       x="-131.93571"
       y="1002.217" />
    <rect
       style="fill:#ff00ff;fill-opacity:1;stroke:none"
       id="rect6406-6"
       width="40"
       height="25"
       x="-161.93582"
       y="966.86395"
       ry="6.5126052" />
    <rect
       style="fill:#ffff00;fill-opacity:1;stroke:none"
       id="rect6406-2-1"
       width="15"
       height="21.085659"
       x="-161.93582"
       y="953.52832"
       ry="2.5604014" />
    <path
       style="fill:#501616;fill-opacity:1;stroke:none"
       inkscape:transform-center-y="-2.2632539"
       d="m -152.30934,940.93365 c 3.72168,1.33384 5.33616,14.44917 5.33616,14.44917 l -6.94578,0.86951 c 0,0 -0.76028,-13.04237 1.60962,-15.31868 z"
       id="path6482-8"
       inkscape:connector-curvature="0"
       sodipodi:nodetypes="cccc"
       inkscape:transform-center-x="-0.56301894" />
    <path
       style="fill:#ffff00;fill-opacity:1;stroke:none"
       d="m -164.68287,963.57927 3.51674,-6.93633 c 0.44709,-0.88183 3.1694,6.31863 3.1694,7.65793 l 0,3.2235 c 0,1.3393 0.21264,5.2646 -0.89656,4.8166 l -5.94105,-2.3991 c -1.10919,-0.4479 -2.01113,-1.0885 -2.15924,-2.4175 l -0.0757,-0.6796 c -0.14812,-1.329 1.93935,-2.3837 2.38644,-3.2655 z"
       id="rect6406-2-7-4"
       inkscape:connector-curvature="0"
       sodipodi:nodetypes="sssssssss" />
  </g>
</svg>
