<?xml version="1.0" encoding="UTF-8" standalone="no"?>
<!-- Created with Inkscape (http://www.inkscape.org/) -->

<svg
   xmlns:dc="http://purl.org/dc/elements/1.1/"
   xmlns:cc="http://creativecommons.org/ns#"
   xmlns:rdf="http://www.w3.org/1999/02/22-rdf-syntax-ns#"
   xmlns:svg="http://www.w3.org/2000/svg"
   xmlns="http://www.w3.org/2000/svg"
   xmlns:sodipodi="http://sodipodi.sourceforge.net/DTD/sodipodi-0.dtd"
   xmlns:inkscape="http://www.inkscape.org/namespaces/inkscape"
   width="16"
   height="16"
   id="svg2"
   version="1.1"
   inkscape:version="0.48.4 r9939"
   sodipodi:docname="player.svg"
   inkscape:export-filename="C:\Programmation\javascript\ld29\gfx\player.png"
   inkscape:export-xdpi="90"
   inkscape:export-ydpi="90">
  <defs
     id="defs4" />
  <sodipodi:namedview
     id="base"
     pagecolor="#ffffff"
     bordercolor="#666666"
     borderopacity="1.0"
     inkscape:pageopacity="0.0"
     inkscape:pageshadow="2"
     inkscape:zoom="22.4"
     inkscape:cx="20.014635"
     inkscape:cy="7.8518275"
     inkscape:document-units="px"
     inkscape:current-layer="layer1"
     showgrid="false"
     inkscape:window-width="1600"
     inkscape:window-height="837"
     inkscape:window-x="-8"
     inkscape:window-y="-8"
     inkscape:window-maximized="1" />
  <metadata
     id="metadata7">
    <rdf:RDF>
      <cc:Work
         rdf:about="">
        <dc:format>image/svg+xml</dc:format>
        <dc:type
           rdf:resource="http://purl.org/dc/dcmitype/StillImage" />
        <dc:title></dc:title>
      </cc:Work>
    </rdf:RDF>
  </metadata>
  <g
     inkscape:label="Calque 1"
     inkscape:groupmode="layer"
     id="layer1"
     transform="translate(0,-1036.3622)">
    <path
       style="fill:none;stroke:#000000;stroke-width:1px;stroke-linecap:butt;stroke-linejoin:miter;stroke-opacity:1"
       d="M 105,908.07649 89.999996,916.29077 105,933.07649 121.78572,917.71934 z"
       id="path3773"
       inkscape:connector-curvature="0" />
    <path
       style="fill:none;stroke:#000000;stroke-width:1px;stroke-linecap:butt;stroke-linejoin:miter;stroke-opacity:1"
       d="m 104.64286,931.64791 1.42857,30.71429"
       id="path3775"
       inkscape:connector-curvature="0" />
    <path
       style="fill:none;stroke:#000000;stroke-width:1px;stroke-linecap:butt;stroke-linejoin:miter;stroke-opacity:1"
       d="M 97.142856,986.64791 96.428576,969.8622 105,961.64791"
       id="path3777"
       inkscape:connector-curvature="0" />
    <path
       style="fill:none;stroke:#000000;stroke-width:1px;stroke-linecap:butt;stroke-linejoin:miter;stroke-opacity:1"
       d="m 106.42858,961.64791 10.35714,9.28572 0.71428,14.64286"
       id="path3779"
       inkscape:connector-curvature="0" />
    <path
       style="fill:none;stroke:#000000;stroke-width:1px;stroke-linecap:butt;stroke-linejoin:miter;stroke-opacity:1"
       d="m 105,938.07649 -12.857144,8.21428 3.92857,10.71429"
       id="path3781"
       inkscape:connector-curvature="0" />
    <path
       style="fill:none;stroke:#000000;stroke-width:1px;stroke-linecap:butt;stroke-linejoin:miter;stroke-opacity:1"
       d="m 105.26786,938.43363 c 0.35714,0 13.66072,4.01786 13.66072,4.01786 l -3.03572,14.19642"
       id="path3783"
       inkscape:connector-curvature="0" />
    <path
       style="fill:none;stroke:#000000;stroke-width:1px;stroke-linecap:butt;stroke-linejoin:miter;stroke-opacity:1"
       d="m 173.21429,-96.642857 -9.64286,16.785714 16.78571,14.642857 L 195,-79.857143 z"
       id="path3785"
       inkscape:connector-curvature="0"
       transform="translate(0,1004.3622)" />
    <path
       style="fill:none;stroke:#000000;stroke-width:1px;stroke-linecap:butt;stroke-linejoin:miter;stroke-opacity:1"
       d="M 179.64286,-65.928572 179.28571,-47"
       id="path3787"
       inkscape:connector-curvature="0"
       transform="translate(0,1004.3622)" />
    <path
       style="fill:none;stroke:#000000;stroke-width:1px;stroke-linecap:butt;stroke-linejoin:miter;stroke-opacity:1"
       d="m 186.42857,-28.071429 -2.85714,-15 -6.07143,-5.714285"
       id="path3789"
       inkscape:connector-curvature="0"
       transform="translate(0,1004.3622)" />
    <path
       style="fill:none;stroke:#000000;stroke-width:1px;stroke-linecap:butt;stroke-linejoin:miter;stroke-opacity:1"
       d="M 178.92857,-48.071429 179.28571,-37 l 0,11.071428"
       id="path3791"
       inkscape:connector-curvature="0"
       transform="translate(0,1004.3622)" />
    <path
       style="fill:none;stroke:#000000;stroke-width:1px;stroke-linecap:butt;stroke-linejoin:miter;stroke-opacity:1"
       d="m 179.28571,-58.071429 2.85715,9.642857 5.35714,5"
       id="path3795"
       inkscape:connector-curvature="0"
       transform="translate(0,1004.3622)" />
    <path
       style="fill:none;stroke:#000000;stroke-width:1px;stroke-linecap:butt;stroke-linejoin:miter;stroke-opacity:1"
       d="m 180,-63.071429 2.14286,8.571429 2.14285,2.142857"
       id="path3797"
       inkscape:connector-curvature="0"
       transform="translate(0,1004.3622)" />
    <rect
       style="fill:#0000ff;fill-rule:evenodd;stroke:#000000;stroke-width:1px;stroke-linecap:butt;stroke-linejoin:miter;stroke-opacity:1"
       id="rect3803"
       width="4.2931485"
       height="4.5456862"
       x="99.752563"
       y="-87.107903"
       transform="translate(0,1004.3622)" />
    <rect
       style="fill:#0000ff;fill-rule:evenodd;stroke:#000000;stroke-width:1px;stroke-linecap:butt;stroke-linejoin:miter;stroke-opacity:1"
       id="rect3807"
       width="3.0304577"
       height="4.5456862"
       x="108.84393"
       y="-87.612976"
       transform="translate(0,1004.3622)" />
    <rect
       style="fill:#0000ff;fill-rule:evenodd;stroke:#000000;stroke-width:1px;stroke-linecap:butt;stroke-linejoin:miter;stroke-opacity:1"
       id="rect3815"
       width="3.2829957"
       height="4.0406103"
       x="184.1003"
       y="-82.562218"
       transform="translate(0,1004.3622)" />
    <path
       style="fill:#5c5c5c;fill-opacity:1;stroke:#000000;stroke-width:0.57278752;stroke-linecap:butt;stroke-linejoin:miter;stroke-miterlimit:4;stroke-opacity:1;stroke-dasharray:none"
       d="m 146.78323,1013.3265 0.23217,10.8661 4.1791,-0.152 -0.46434,-10.3342 -1.54782,-1.7476 z"
       id="path3821-7-1"
       inkscape:connector-curvature="0" />
    <path
       style="fill:#5c5c5c;fill-opacity:1;stroke:#000000;stroke-width:0.57278752;stroke-linecap:butt;stroke-linejoin:miter;stroke-miterlimit:4;stroke-opacity:1;stroke-dasharray:none"
       d="m 143.12661,1014.8083 0.23218,10.8662 4.1791,-0.1522 -0.46435,-10.3339 -1.54782,-1.7478 z"
       id="path3821-74"
       inkscape:connector-curvature="0" />
    <path
       style="fill:#a61e1e;fill-opacity:1;stroke:#000000;stroke-width:0.57278752;stroke-linecap:butt;stroke-linejoin:miter;stroke-miterlimit:4;stroke-opacity:1;stroke-dasharray:none"
       d="m 145.29068,1023.5112 -0.27231,2.8042 0.0778,2.7263 4.55149,-0.1558 -0.58353,-1.9863 -0.0389,-1.9084"
       id="path3865-0"
       inkscape:connector-curvature="0" />
    <path
       style="fill:#a61e1e;fill-opacity:1;stroke:#000000;stroke-width:0.57278752;stroke-linecap:butt;stroke-linejoin:miter;stroke-miterlimit:4;stroke-opacity:1;stroke-dasharray:none"
       d="m 154.98248,1024.0533 0.62243,2.1421 0.1556,1.6357 -3.65674,0.5453 -0.46682,-1.7915 0,-2.3758 z"
       id="path3867-9"
       inkscape:connector-curvature="0" />
    <path
       style="fill:#626262;fill-opacity:1;stroke:#000000;stroke-width:0.57278752;stroke-linecap:butt;stroke-linejoin:miter;stroke-miterlimit:4;stroke-opacity:1;stroke-dasharray:none"
       d="m 151.69312,1016.4816 0.67988,4.1723 3.20516,-4.0004 -1.45689,-0.6881 -1.11695,2.1937 -0.48563,-1.8926 z"
       id="path3845-4-4"
       inkscape:connector-curvature="0" />
    <path
       style="fill:#acacac;fill-opacity:1;stroke:#000000;stroke-width:0.57278752;stroke-linecap:butt;stroke-linejoin:miter;stroke-miterlimit:4;stroke-opacity:1;stroke-dasharray:none"
       d="m 147.60966,1015.1462 -2.19957,2.8498 -0.0863,5.6132 3.70907,1.2954 5.95175,-0.9067 -0.77631,-6.4768 -1.94079,-2.3749 z"
       id="path3819-8"
       inkscape:connector-curvature="0" />
    <path
       style="fill:none;stroke:#000000;stroke-width:0.57278752px;stroke-linecap:butt;stroke-linejoin:miter;stroke-opacity:1"
       d="m 148.87024,1017.187 -2.47012,-0.9845"
       id="path3887-8"
       inkscape:connector-curvature="0" />
    <path
       style="fill:#626262;fill-opacity:1;stroke:#000000;stroke-width:0.57278752;stroke-linecap:butt;stroke-linejoin:miter;stroke-miterlimit:4;stroke-opacity:1;stroke-dasharray:none"
       d="m 146.09411,1017.3434 0.7112,4.9334 3.35282,-4.7299 -1.52401,-0.8138 -1.16841,2.5938 -0.508,-2.2377 z"
       id="path3845-2"
       inkscape:connector-curvature="0" />
    <path
       style="fill:none;stroke:#000000;stroke-width:0.57278752px;stroke-linecap:butt;stroke-linejoin:miter;stroke-opacity:1"
       d="m 154.88966,1016.2746 -2.61401,-0.5283"
       id="path3885-4"
       inkscape:connector-curvature="0" />
    <path
       sodipodi:type="arc"
       style="fill:#ecc374;fill-opacity:1;fill-rule:evenodd;stroke:#000000;stroke-width:1.75328135;stroke-linecap:butt;stroke-linejoin:miter;stroke-miterlimit:4;stroke-opacity:1;stroke-dasharray:none"
       id="path3817-5"
       sodipodi:cx="45.39373"
       sodipodi:cy="19.526325"
       sodipodi:rx="12.942579"
       sodipodi:ry="12.942579"
       d="m 58.336309,19.526325 c 0,7.147989 -5.79459,12.942579 -12.942579,12.942579 -7.147989,0 -12.942579,-5.79459 -12.942579,-12.942579 0,-7.147989 5.79459,-12.942579 12.942579,-12.942579 7.147989,0 12.942579,5.79459 12.942579,12.942579 z"
       transform="matrix(0.32650418,0,0,0.3268851,136.043,1005.6325)" />
    <path
       sodipodi:type="arc"
       style="fill:#ffffff;fill-opacity:1;stroke:#000000;stroke-width:1.2773602;stroke-miterlimit:4;stroke-opacity:1;stroke-dasharray:none"
       id="path3889-5"
       sodipodi:cx="21.41839"
       sodipodi:cy="12.755146"
       sodipodi:rx="2.8568377"
       sodipodi:ry="2.8568377"
       d="m 24.275228,12.755146 c 0,1.577788 -1.27905,2.856838 -2.856838,2.856838 -1.577788,0 -2.856837,-1.27905 -2.856837,-2.856838 0,-1.577788 1.279049,-2.8568377 2.856837,-2.8568377 1.577788,0 2.856838,1.2790497 2.856838,2.8568377 z"
       transform="matrix(0.40772897,0,0,0.40820464,141.9411,1006.3767)" />
    <path
       sodipodi:type="arc"
       style="fill:#ffffff;fill-opacity:1;stroke:#000000;stroke-width:1.2773602;stroke-miterlimit:4;stroke-opacity:1;stroke-dasharray:none"
       id="path3889-8-1"
       sodipodi:cx="21.41839"
       sodipodi:cy="12.755146"
       sodipodi:rx="2.8568377"
       sodipodi:ry="2.8568377"
       d="m 24.275228,12.755146 c 0,1.577788 -1.27905,2.856838 -2.856838,2.856838 -1.577788,0 -2.856837,-1.27905 -2.856837,-2.856838 0,-1.577788 1.279049,-2.8568377 2.856837,-2.8568377 1.577788,0 2.856838,1.2790497 2.856838,2.8568377 z"
       transform="matrix(0.40772897,0,0,0.40820464,144.97271,1006.1218)" />
    <path
       sodipodi:type="arc"
       style="fill:#000000;fill-opacity:1;stroke:none"
       id="path3889-82-71"
       sodipodi:cx="21.41839"
       sodipodi:cy="12.755146"
       sodipodi:rx="2.8568377"
       sodipodi:ry="2.8568377"
       d="m 24.275228,12.755146 c 0,1.577788 -1.27905,2.856838 -2.856838,2.856838 -1.577788,0 -2.856837,-1.27905 -2.856837,-2.856838 0,-1.577788 1.279049,-2.8568377 2.856837,-2.8568377 1.577788,0 2.856838,1.2790497 2.856838,2.8568377 z"
       transform="matrix(0.18901344,0,0,0.18923395,147.07305,1009.2005)" />
    <path
       sodipodi:type="arc"
       style="fill:#000000;fill-opacity:1;stroke:none"
       id="path3889-82-7-1"
       sodipodi:cx="21.41839"
       sodipodi:cy="12.755146"
       sodipodi:rx="2.8568377"
       sodipodi:ry="2.8568377"
       d="m 24.275228,12.755146 c 0,1.577788 -1.27905,2.856838 -2.856838,2.856838 -1.577788,0 -2.856837,-1.27905 -2.856837,-2.856838 0,-1.577788 1.279049,-2.8568377 2.856837,-2.8568377 1.577788,0 2.856838,1.2790497 2.856838,2.8568377 z"
       transform="matrix(0.18901344,0,0,0.18923395,150.0738,1008.9611)" />
    <path
       style="fill:none;stroke:#000000;stroke-width:0.52112043px;stroke-linecap:butt;stroke-linejoin:miter;stroke-opacity:1"
       d="m 154.01417,1014.7421 -3.23989,0.1544 -0.43199,-0.6332"
       id="path3981-5"
       inkscape:connector-curvature="0" />
    <path
       style="fill:#7a5640;fill-opacity:1;stroke:#000000;stroke-width:0.52112043px;stroke-linecap:butt;stroke-linejoin:miter;stroke-opacity:1"
       d="m 154.9323,1010.3511 0.50183,0.8082 0.30546,-0.3932 -0.72002,-1.3542 -1.13456,-1.5073 -1.52729,-0.5024 -2.57459,-0.3058 -2.37822,0.7864 -1.15638,2.228 -0.43637,2.9053 0.61092,0.8082 1.35275,-0.3713 -0.56728,-1.5728 0.41455,-1.4635 1.33093,-1.267 2.09458,-0.5679 1.81093,0.415 1.26547,0.8737 z"
       id="path3983-2"
       inkscape:connector-curvature="0" />
    <path
       style="fill:#ffffff;fill-opacity:1;stroke:#000000;stroke-width:0.52112043px;stroke-linecap:butt;stroke-linejoin:miter;stroke-opacity:1"
       d="m 145.44125,1029.4736 c 0,0 1.46143,1.389 1.60551,1.389 0.14408,0 4.94004,-0.5253 4.94004,-0.5253 l -2.01718,-1.0037 z"
       id="path3993-7"
       inkscape:connector-curvature="0" />
    <path
       style="fill:#ffffff;fill-opacity:1;stroke:#000000;stroke-width:0.52112043px;stroke-linecap:butt;stroke-linejoin:miter;stroke-opacity:1"
       d="m 152.29226,1028.6654 c 0,0 1.33052,0.9346 1.4746,0.9346 0.14409,0 3.65275,-0.3287 3.65275,-0.3287 l -1.55899,-1.3139 z"
       id="path3993-2-6"
       inkscape:connector-curvature="0"
       sodipodi:nodetypes="csccc" />
    <path
       style="fill:#ecc374;fill-opacity:1;stroke:#000000;stroke-width:0.52112043px;stroke-linecap:butt;stroke-linejoin:miter;stroke-opacity:1"
       d="m 149.44662,1018.6764 1.38183,-1.4476 -0.80607,-0.6087 -1.62859,-0.51 -0.42771,1.4806 z"
       id="path4013-1"
       inkscape:connector-curvature="0" />
    <path
       style="fill:#ecc374;fill-opacity:1;stroke:#000000;stroke-width:0.52112043px;stroke-linecap:butt;stroke-linejoin:miter;stroke-opacity:1"
       d="m 155.24281,1017.459 1.08005,-1.1258 -0.63003,-0.4734 -1.27291,-0.3966 -0.3343,1.1515 z"
       id="path4013-6-4"
       inkscape:connector-curvature="0" />
    <path
       style="fill:#ffc000;fill-opacity:1;stroke:#000000;stroke-width:0.5;stroke-linecap:butt;stroke-linejoin:miter;stroke-miterlimit:4;stroke-opacity:1;stroke-dasharray:none"
       d="m 1.2415707,1042.8358 5.6308767,-3.1082 5.8561116,2.0271 1.081128,2.1173 -0.540564,2.6127 -6.1263935,1.6216 -5.3605946,-2.1172 -0.81084634,-1.3514 z"
       id="path3092"
       inkscape:connector-curvature="0" />
    <path
       style="fill:#ffffff;fill-opacity:1;stroke:#000000;stroke-width:0.5;stroke-linecap:butt;stroke-linejoin:miter;stroke-miterlimit:4;stroke-opacity:1;stroke-dasharray:none"
       d="m 10.476209,1039.5024 -2.3874922,1.3964 1.5766453,2.8379 2.4325389,-0.045 1.216269,-2.6576 z"
       id="path3094"
       inkscape:connector-curvature="0" />
    <path
       style="fill:#cf1d00;fill-opacity:1;stroke:#000000;stroke-width:0.5;stroke-linecap:butt;stroke-linejoin:miter;stroke-miterlimit:4;stroke-opacity:1;stroke-dasharray:none"
       d="m 9.2148919,1046.2144 0.5856116,-1.4416 5.1353585,0 -0.04505,1.8019 z"
       id="path3096"
       inkscape:connector-curvature="0" />
    <path
       style="fill:#cf1d00;fill-opacity:1;stroke:#000000;stroke-width:0.5;stroke-linecap:butt;stroke-linejoin:miter;stroke-miterlimit:4;stroke-opacity:1;stroke-dasharray:none"
       d="m 9.259939,1046.6649 -0.2252351,2.1172 6.3065821,-0.3154 -0.450471,-1.8018 z"
       id="path3098"
       inkscape:connector-curvature="0" />
    <path
       style="fill:#ff7f00;fill-opacity:1;stroke:#000000;stroke-width:0.5;stroke-linecap:butt;stroke-linejoin:miter;stroke-miterlimit:4;stroke-opacity:1;stroke-dasharray:none"
       d="m 3.8092504,1043.9169 -1.2006265,4.763 1.9690127,1.1062 3.1523206,-1.0869 -0.9476039,-4.6921 z"
       id="path3100"
       inkscape:connector-curvature="0"
       sodipodi:nodetypes="cccccc" />
    <path
       sodipodi:type="arc"
       style="fill:#000000;fill-opacity:1;stroke:none;stroke-width:0.30833589;stroke-miterlimit:4;stroke-dasharray:none"
       id="path3870"
       sodipodi:cx="7.34375"
       sodipodi:cy="3.498884"
       sodipodi:rx="0.4296875"
       sodipodi:ry="0.4296875"
       d="m 7.7734375,3.498884 a 0.4296875,0.4296875 0 1 1 -0.859375,0 0.4296875,0.4296875 0 1 1 0.859375,0 z"
       transform="matrix(1.6216082,0,0,1.6216082,-0.30009282,1035.9404)" />
  </g>
</svg>
