<?xml version="1.0" encoding="UTF-8" standalone="no"?>
<!-- Created with Inkscape (http://www.inkscape.org/) -->

<svg
   xmlns:dc="http://purl.org/dc/elements/1.1/"
   xmlns:cc="http://creativecommons.org/ns#"
   xmlns:rdf="http://www.w3.org/1999/02/22-rdf-syntax-ns#"
   xmlns:svg="http://www.w3.org/2000/svg"
   xmlns="http://www.w3.org/2000/svg"
   xmlns:sodipodi="http://sodipodi.sourceforge.net/DTD/sodipodi-0.dtd"
   xmlns:inkscape="http://www.inkscape.org/namespaces/inkscape"
   width="64"
   height="64"
   id="svg3029"
   version="1.1"
   inkscape:version="0.48.4 r9939"
   sodipodi:docname="icon.svg"
   inkscape:export-filename="C:\wamp\www\switch_color\icons\96.png"
   inkscape:export-xdpi="135"
   inkscape:export-ydpi="135">
  <defs
     id="defs3031" />
  <sodipodi:namedview
     id="base"
     pagecolor="#ffffff"
     bordercolor="#666666"
     borderopacity="1.0"
     inkscape:pageopacity="0.0"
     inkscape:pageshadow="2"
     inkscape:zoom="5.6568543"
     inkscape:cx="90.599328"
     inkscape:cy="35.75082"
     inkscape:document-units="px"
     inkscape:current-layer="layer1"
     showgrid="false"
     inkscape:window-width="1600"
     inkscape:window-height="837"
     inkscape:window-x="-8"
     inkscape:window-y="-8"
     inkscape:window-maximized="1" />
  <metadata
     id="metadata3034">
    <rdf:RDF>
      <cc:Work
         rdf:about="">
        <dc:format>image/svg+xml</dc:format>
        <dc:type
           rdf:resource="http://purl.org/dc/dcmitype/StillImage" />
        <dc:title></dc:title>
      </cc:Work>
    </rdf:RDF>
  </metadata>
  <g
     inkscape:label="Calque 1"
     inkscape:groupmode="layer"
     id="layer1"
     transform="translate(0,-988.36218)">
    <rect
       style="opacity:0.98999999;fill:#26b5ff;fill-opacity:1;stroke:none"
       id="rect3777-0"
       width="20.493864"
       height="20.494204"
       x="257.43289"
       y="906.2666" />
    <rect
       y="928.02087"
       x="257.43289"
       height="20.494204"
       width="20.493864"
       id="rect3781-6"
       style="opacity:0.98999999;fill:#d8d8d8;fill-opacity:1;stroke:none" />
    <rect
       style="opacity:0.98999999;fill:#d8d8d8;fill-opacity:1;stroke:none"
       id="rect3074-1"
       width="20.493864"
       height="20.494204"
       x="257.43289"
       y="884.51501" />
    <rect
       style="opacity:0.98999999;fill:#d8d8d8;fill-opacity:1;stroke:none"
       id="rect3078-8"
       width="20.493864"
       height="20.494204"
       x="300.93903"
       y="884.51501" />
    <rect
       style="opacity:0.98999999;fill:#d8d8d8;fill-opacity:1;stroke:none"
       id="rect3082-9"
       width="20.493864"
       height="20.494204"
       x="300.93903"
       y="928.02087" />
    <rect
       y="906.2666"
       x="279.18594"
       height="20.494204"
       width="20.493864"
       id="rect3084-8"
       style="opacity:0.98999999;fill:#26b5ff;fill-opacity:1;stroke:none" />
    <rect
       style="opacity:0.98999999;fill:#26b5ff;fill-opacity:1;stroke:none"
       id="rect3086-4"
       width="20.493864"
       height="20.494204"
       x="279.18594"
       y="884.51501" />
    <rect
       y="928.02087"
       x="279.18594"
       height="20.494204"
       width="20.493864"
       id="rect3088-1"
       style="opacity:0.98999999;fill:#26b5ff;fill-opacity:1;stroke:none" />
    <rect
       style="opacity:0.98999999;fill:#26b5ff;fill-opacity:1;stroke:none"
       id="rect3090-4"
       width="20.493864"
       height="20.494204"
       x="300.93903"
       y="906.2666" />
    <g
       id="g3992"
       transform="translate(279.48395,-22.627417)">
      <rect
         style="opacity:0.98999999;fill:#d8d8d8;fill-opacity:1;stroke:none"
         id="rect3994"
         width="20.493864"
         height="20.494204"
         x="0"
         y="988.36218" />
      <path
         style="fill:#000000;fill-opacity:0.04705882;stroke:none"
         d="m 0,988.3622 20.492592,0.005 0.0014,20.4893 -3.501803,-16.8502 z"
         id="path3996"
         inkscape:connector-curvature="0"
         sodipodi:nodetypes="ccccc" />
    </g>
    <g
       transform="matrix(0.47215238,0,0,0.47214829,-3.3050667,985.05741)"
       id="g3819">
      <path
         inkscape:connector-curvature="0"
         id="rect3074"
         d="m 7.0000014,6.9999623 43.5494576,0 0,43.5501407 -43.5494576,0 z"
         style="opacity:0.98999999;fill:#d8d8d8;fill-opacity:1;stroke:none" />
      <path
         sodipodi:nodetypes="ccccc"
         inkscape:connector-curvature="0"
         id="path3010"
         d="M 7,6.999502 50.545883,7.010416 50.549,50.54604 43.718238,15.118402 z"
         style="fill:#000000;fill-opacity:0.04705882;stroke:none" />
    </g>
    <path
       inkscape:connector-curvature="0"
       id="path3825"
       d="m 21.719009,988.36239 20.561981,0 0,20.56211 -20.561981,0 z"
       style="opacity:0.98999999;fill:#26b5ff;fill-opacity:1;stroke:none" />
    <path
       sodipodi:nodetypes="ccccc"
       inkscape:connector-curvature="0"
       id="path3827"
       d="m 21.719009,988.3622 20.560293,0.005 0.0015,20.5553 -3.225161,-16.72716 z"
       style="fill:#000000;fill-opacity:0.04705882;stroke:none" />
    <g
       transform="matrix(0.47215238,0,0,0.47214829,40.132952,985.05741)"
       id="g3842">
      <path
         inkscape:connector-curvature="0"
         id="path3844"
         d="m 7.0000014,6.9999623 43.5494576,0 0,43.5501407 -43.5494576,0 z"
         style="opacity:0.98999999;fill:#d8d8d8;fill-opacity:1;stroke:none" />
      <path
         sodipodi:nodetypes="ccccc"
         inkscape:connector-curvature="0"
         id="path3846"
         d="M 7,6.999502 50.545883,7.010416 50.549,50.54604 43.718238,15.118402 z"
         style="fill:#000000;fill-opacity:0.04705882;stroke:none" />
    </g>
    <g
       id="g3848"
       transform="matrix(0.47215238,0,0,0.47214829,40.132952,1006.7762)"
       style="fill:#26b5ff;fill-opacity:1">
      <path
         style="opacity:0.98999999;fill:#26b5ff;fill-opacity:1;stroke:none"
         d="m 7.0000014,6.9999623 43.5494576,0 0,43.5501407 -43.5494576,0 z"
         id="path3850"
         inkscape:connector-curvature="0" />
      <path
         style="fill:#26b5ff;fill-opacity:1;stroke:none"
         d="M 7,6.999502 50.545883,7.010416 50.549,50.54604 43.718238,15.118402 z"
         id="path3852"
         inkscape:connector-curvature="0"
         sodipodi:nodetypes="ccccc" />
    </g>
    <g
       transform="matrix(0.47215238,0,0,0.47214829,40.132952,1028.495)"
       id="g3854">
      <path
         inkscape:connector-curvature="0"
         id="path3856"
         d="m 7.0000014,6.9999623 43.5494576,0 0,43.5501407 -43.5494576,0 z"
         style="opacity:0.98999999;fill:#d8d8d8;fill-opacity:1;stroke:none" />
      <path
         sodipodi:nodetypes="ccccc"
         inkscape:connector-curvature="0"
         id="path3858"
         d="M 7,6.999502 50.545883,7.010416 50.549,50.54604 43.718238,15.118402 z"
         style="fill:#000000;fill-opacity:0.04705882;stroke:none" />
    </g>
    <path
       inkscape:connector-curvature="0"
       id="path3862"
       d="m 21.719009,1031.8 20.561981,0 0,20.5621 -20.561981,0 z"
       style="opacity:0.98999999;fill:#26b5ff;fill-opacity:1;stroke:none" />
    <path
       sodipodi:nodetypes="ccccc"
       inkscape:connector-curvature="0"
       id="path3864"
       d="m 21.719009,1031.7998 20.560293,0 0.0015,20.5552 -3.225161,-16.7271 z"
       style="fill:#000000;fill-opacity:0.04705882;stroke:none" />
    <g
       transform="matrix(0.47215238,0,0,0.47214829,-3.3050667,1028.495)"
       id="g3866">
      <path
         inkscape:connector-curvature="0"
         id="path3868"
         d="m 7.0000014,6.9999623 43.5494576,0 0,43.5501407 -43.5494576,0 z"
         style="opacity:0.98999999;fill:#d8d8d8;fill-opacity:1;stroke:none" />
      <path
         sodipodi:nodetypes="ccccc"
         inkscape:connector-curvature="0"
         id="path3870"
         d="M 7,6.999502 50.545883,7.010416 50.549,50.54604 43.718238,15.118402 z"
         style="fill:#000000;fill-opacity:0.04705882;stroke:none" />
    </g>
    <path
       inkscape:connector-curvature="0"
       id="path3874"
       d="m 4.7e-7,1010.0811 20.56198053,0 0,20.5623 -20.56198053,0 z"
       style="opacity:0.98999999;fill:#26b5ff;fill-opacity:1;stroke:none" />
    <path
       sodipodi:nodetypes="ccccc"
       inkscape:connector-curvature="0"
       id="path3876"
       d="m 0,1010.081 20.560293,0 0.0015,20.5552 -3.225161,-16.7269 z"
       style="fill:#000000;fill-opacity:0.04705882;stroke:none" />
    <path
       style="opacity:0.98999999;fill:#26b5ff;fill-opacity:1;stroke:none"
       d="m 21.719009,1010.0811 20.561981,0 0,20.5623 -20.561981,0 z"
       id="path3880"
       inkscape:connector-curvature="0" />
    <path
       style="fill:#000000;fill-opacity:0.04705882;stroke:none"
       d="m 21.719009,1010.081 20.560293,0 0.0015,20.5552 -3.225161,-16.7269 z"
       id="path3882"
       inkscape:connector-curvature="0"
       sodipodi:nodetypes="ccccc" />
  </g>
</svg>
